<svg id="Capa_1" enable-background="new 0 0 511.998 511.998" height="512" viewBox="0 0 511.998 511.998" width="512" xmlns="http://www.w3.org/2000/svg"><g><g><g clip-rule="evenodd" fill-rule="evenodd"><path d="m378.903 467.987c166.112-147.683 80.996-430.244-122.89-314.217-203.886-116.028-289.003 166.534-122.89 314.217 45.271 40.249 98.076 54.252 122.89 5.456 24.815 48.796 77.619 34.792 122.89-5.456z" fill="#ff4a51"/><path d="m289.011 90.797c48.578 15.867 96.047-31.603 80.18-80.18-48.578-15.867-96.046 31.601-80.18 80.18z" fill="#8cc63f"/><path d="m177.585 127.004c-144.393-12.63-187.271 214.018-44.462 340.983 28.994 25.778 61.079 40.79 86.922 35.433-154.748-27.638-224.43-359.711-42.46-376.416z" fill="#ff1d25"/><path d="m289.011 90.797c4.122 1.346 8.234 2.226 12.301 2.699-4.623-39.805 30.77-75.2 70.577-70.577-.472-4.067-1.352-8.18-2.699-12.302-48.577-15.867-96.045 31.601-80.179 80.18z" fill="#39b54a"/></g><g><path d="m163.519 277.15h-15v-15h15zm30-30h-15v-15h15zm-60 0h-15v-15h15zm30-30h-15v-15h15z" fill="#fff"/></g><g><path d="m436.292 325.655h-15v-15h15zm0-30h-15c0-30.669-3.774-55.943-11.217-75.119-8.779-22.618-22.39-37.042-41.611-44.098l5.168-14.081c23.176 8.506 40.143 26.254 50.427 52.751 8.232 21.208 12.233 47.555 12.233 80.547z" fill="#fff"/></g><g><path d="m326.329 38.479h15v15h-15z" fill="#fff" transform="matrix(.707 -.707 .707 .707 65.264 249.52)"/></g></g><g><path d="m293.514 496.077c-12.564-2.6-22.65-10.832-30.001-24.477v-13.157h-15v13.157c-7.489 13.902-17.815 22.182-30.716 24.62-21.814 4.122-50.864-8.209-79.691-33.838-64.746-57.563-96.838-145.205-81.758-223.279l-14.728-2.845c-7.491 38.788-4.25 80.753 9.372 121.361 14.819 44.174 41.497 84.277 77.147 115.973 32.328 28.741 66.027 42.358 92.443 37.367 14.159-2.676 26.22-10.599 35.408-23.14 8.961 12.356 20.518 20.057 34.483 22.947 3.987.825 8.118 1.233 12.378 1.233 22.64 0 48.829-11.537 75.146-33.354l-9.573-11.548c-27.288 22.622-54.595 33.182-74.91 28.98z"/><path d="m441.626 167.816c-19.502-26.431-46.173-42.844-77.131-47.467-30.942-4.623-64.862 2.392-100.981 20.849v-14.296l27.675-27.675c5.749 1.474 11.547 2.215 17.301 2.215 15.609 0 30.88-5.359 43.859-15.713l-9.354-11.726c-11.43 9.118-25.082 13.324-38.82 12.238l19.048-19.048-10.606-10.606-19.061 19.061c-1.285-15.949 4.554-31.675 16.684-43.804 14.435-14.436 33.964-19.966 52.901-15.175 4.215 16.696.392 33.971-10.743 47.931l11.727 9.354c15.17-19.02 19.616-42.953 12.198-65.665l-1.182-3.619-3.619-1.182c-25.169-8.22-52.718-1.42-71.889 17.749-18.032 18.033-25.117 43.476-19.051 67.385l-17.068 17.068v-31.277c-.001-41.031-33.383-74.413-74.414-74.413v15c32.761 0 59.413 26.652 59.413 59.413v66.804c-47.036-23.977-91.029-28.668-127.842-13.463-36.17 14.942-62.982 48.084-75.499 93.322l14.457 4c11.255-40.682 34.968-70.322 66.769-83.459 35.288-14.578 78.825-8.122 125.905 18.67l3.709 2.111 3.709-2.111c70.585-40.169 132.487-34.179 169.834 16.434 49.147 66.608 40.673 195.299-50.277 280.71l10.269 10.935c44.854-42.123 74.111-97.851 82.383-156.92 7.673-54.779-3.372-107.131-30.304-143.63z"/></g></g></svg>