<?xml version="1.0" standalone="no"?>
<!DOCTYPE svg PUBLIC "-//W3C//DTD SVG 20010904//EN"
 "http://www.w3.org/TR/2001/REC-SVG-20010904/DTD/svg10.dtd">
<svg version="1.0" xmlns="http://www.w3.org/2000/svg"
 width="512.000000pt" height="512.000000pt" viewBox="0 0 512.000000 512.000000"
 preserveAspectRatio="xMidYMid meet">
<metadata>
Created by potrace 1.11, written by Peter Selinger 2001-2013
</metadata>
<g transform="translate(0.000000,512.000000) scale(0.100000,-0.100000)"
fill="#000000" stroke="none">
<path d="M2433 4786 c-194 -48 -366 -225 -404 -415 l-11 -57 -561 1 c-309 0
-589 -3 -622 -8 -152 -19 -293 -139 -342 -292 -15 -46 -19 -153 -9 -205 31
-147 157 -275 311 -316 73 -20 3443 -20 3525 0 194 46 323 209 322 408 -1 185
-129 348 -312 398 -33 9 -201 13 -635 14 l-590 1 -17 65 c-55 205 -220 369
-409 407 -68 14 -187 14 -246 -1z m223 -274 c23 -9 56 -28 73 -41 39 -30 91
-107 91 -136 0 -20 -2 -21 -260 -21 -259 0 -260 0 -260 21 0 30 53 108 96 140
70 54 181 69 260 37z"/>
<path d="M690 3143 c-14 -1 -110 -4 -215 -5 -189 -3 -190 -3 -255 -34 -315
-151 -278 -598 57 -699 29 -9 105 -14 216 -15 94 0 173 -3 176 -6 3 -2 5 -347
6 -767 1 -553 5 -775 14 -810 63 -257 271 -447 526 -482 50 -7 2628 -8 2675
-2 120 18 198 47 287 108 90 63 177 167 217 264 50 120 50 108 51 922 1 420 4
765 6 767 3 3 82 6 177 6 223 2 291 22 380 111 77 77 110 167 107 285 -3 132
-87 257 -210 315 -33 15 -78 30 -100 34 -22 3 -754 6 -1627 6 -1726 0 -1635 3
-1673 -55 -44 -66 -24 -156 44 -194 36 -21 48 -21 476 -22 241 0 441 -3 444
-6 3 -3 6 -252 7 -552 1 -301 4 -572 8 -602 19 -159 154 -306 314 -344 168
-39 340 27 437 168 62 91 73 138 74 315 1 123 1 123 24 116 37 -12 192 -15
232 -4 20 6 38 9 40 7 1 -2 5 -29 9 -61 16 -159 150 -305 313 -343 60 -14 174
-11 215 5 15 5 29 7 31 3 9 -15 -1 -698 -10 -727 -41 -121 -126 -204 -252
-244 -23 -8 -437 -11 -1350 -11 -1144 0 -1323 2 -1366 15 -98 30 -173 97 -219
195 l-31 65 -1 1075 c-1 591 -2 1085 -3 1097 -2 35 -57 91 -97 99 -38 7 -114
10 -154 7z"/>
</g>
</svg>
